<svg width="19" height="28" viewBox="0 0 19 28" fill="none" xmlns="http://www.w3.org/2000/svg">
<path fill-rule="evenodd" clip-rule="evenodd" d="M11.9473 13.9306L17.9216 7.93134C18.2698 7.58256 18.4426 7.095 18.3952 6.60439C18.3465 6.11317 18.0799 5.66943 17.672 5.3943L10.0749 0.281866C9.56786 -0.0602207 8.90864 -0.0930903 8.36995 0.193605C7.83064 0.48091 7.48308 1.04213 7.48308 1.65204V9.59369L3.53325 5.60065C2.89047 4.953 1.85447 4.94874 1.20682 5.5903C0.559164 6.23308 0.554294 7.27943 1.19708 7.92708L7.15012 13.9294L1.19708 19.9312C0.554294 20.5782 0.559164 21.6246 1.20682 22.2686C1.85447 22.9107 2.89108 22.9071 3.53325 22.2582L7.48308 18.2652V26.2062C7.48308 26.8167 7.83064 27.378 8.36995 27.6646C8.90864 27.952 9.56786 27.9185 10.0749 27.5758L17.6714 22.4652C18.0805 22.1894 18.3465 21.7451 18.3946 21.2551C18.442 20.7639 18.2692 20.2775 17.921 19.9275L11.9473 13.9306ZM10.8358 4.757L14.1939 7.01708L10.8358 10.3886V4.757ZM10.8358 17.4733V23.1049L14.1939 20.8448L10.8358 17.4733Z" fill="white"/>
</svg>
